HIERARCHY
ROOT pelvis
{
  OFFSET 0 0 0
  CHANNELS 6 Xposition Yposition Zposition Zrotation Xrotation Yrotation
  JOINT pelvis_right_femur
  {
    OFFSET -11.43119 -3.542788 0.2090856
    CHANNELS 3 Zrotation Xrotation Yrotation
    JOINT right_femur_tibia
    {
      OFFSET -1.028693 -40.73281 5
      CHANNELS 3 Zrotation Xrotation Yrotation
      JOINT right_tibia_foot
      {
        OFFSET -0.5013517 -42.05707 -5
        CHANNELS 3 Zrotation Xrotation Yrotation
        End Site
        {
          OFFSET 0 -5 10
        }
      }
    }
  }
  JOINT pelvis_left_femur
  {
    OFFSET 11.43119 -3.542788 0.2090856
    CHANNELS 3 Zrotation Xrotation Yrotation
    JOINT left_femur_tibia
    {
      OFFSET 1.028693 -40.73281 5
      CHANNELS 3 Zrotation Xrotation Yrotation
      JOINT left_tibia_foot
      {
        OFFSET 0.3200228 -42.98253 -5
        CHANNELS 3 Zrotation Xrotation Yrotation
        End Site
        {
          OFFSET 0 -5 10
        }
      }
    }
  }
  JOINT pelvis_spine1
  {
    OFFSET 0 8.64413 -3.209807
    CHANNELS 3 Zrotation Xrotation Yrotation
    JOINT spine1
    {
      OFFSET 0 29.53957 -1.762685
      CHANNELS 3 Zrotation Xrotation Yrotation
      JOINT spine2
      {
        OFFSET 0 16.36153 -0.1422377
        CHANNELS 3 Zrotation Xrotation Yrotation
        JOINT neck
        {
          OFFSET 0 11.60093 5
          CHANNELS 3 Zrotation Xrotation Yrotation
          End Site
          {
            OFFSET 0 20 0
          }
        }
      }
      JOINT right_manubrium
      {
        OFFSET -4.671311 15.89868 4
        CHANNELS 3 Zrotation Xrotation Yrotation
        JOINT right_clavicle
        {
          OFFSET -13.601 1.573642 -2.74176
          CHANNELS 3 Zrotation Xrotation Yrotation
          JOINT right_humerus
          {
            OFFSET -0.06331682 -27.72702 2.252146
            CHANNELS 3 Zrotation Xrotation Yrotation
            JOINT right_radius
            {
              OFFSET -0.5696302 -23.92083 0.4042105
              CHANNELS 3 Zrotation Xrotation Yrotation
              End Site
              {
                OFFSET 0 -15 0
              }
            }
          }
        }
      }
      JOINT left_manubrium
      {
        OFFSET 4.671311 15.89868 4
        CHANNELS 3 Zrotation Xrotation Yrotation
        JOINT left_clavicle
        {
          OFFSET 13.601 1.573642 -2.74176
          CHANNELS 3 Zrotation Xrotation Yrotation
          JOINT left_humerus
          {
            OFFSET 0.000209614 -29.01858 1.101395
            CHANNELS 3 Zrotation Xrotation Yrotation
            JOINT left_radius
            {
              OFFSET -0.2288314 -24.59216 1.790347
              CHANNELS 3 Zrotation Xrotation Yrotation
              End Site
              {
                OFFSET 0 -15 0
              }
            }
          }
        }
      }
    }
  }
}
MOTION
Frames: 23
Frame Time: 0.0416666666667
0 48.26591 0 -4.043182 -22.82379 -1.733276 -49.68978 -59.08187 -48.9677 -180 86.46982 -180 5.427472 6.567313 -0.8951362 65.94235 -50.30567 60.20673 -180 80.50059 -180 -5.338043 4.053072 -19.08707 -2.028135 23.54406 1.532596 9.907924 15.53142 -9.742327 -12.42479 11.81608 8.449861 6.209586 -27.68305 2.783685 22.08749 -5.802842 25.7254 -56.11759 -33.10375 8.129602 0 -72.71913 0 15.91921 16.84848 43.77354 -28.42827 -26.88718 -5.310178 48.97469 -22.59033 -17.4483 0 -74.16654 0 -12.25591 6.916141 -31.38919
-0.01592208 48.28581 0.03825993 -4.060978 -22.63519 -1.940366 -49.77216 -59.28224 -49.15804 -180 86.48114 -180 5.422922 6.554114 -0.8447239 66.07741 -50.33794 60.263 -180 80.48088 -180 -5.377727 3.968346 -18.95465 -1.965678 23.36536 1.619612 9.584222 15.57862 -9.46438 -12.32021 11.63635 8.628749 5.978294 -27.69041 3.1301 22.18376 -5.80034 25.39464 -56.10497 -33.114 8.232084 0 -72.91955 0 15.92889 16.89133 43.73861 -28.5284 -27.09608 -4.215376 49.93452 -20.91187 -15.13875 0 -76.46309 0 -10.46478 3.798194 -28.96709
-0.05364917 48.29973 0.06506548 -4.019958 -22.44339 -2.10034 -49.97217 -59.45734 -49.44679 -180 86.48246 -180 5.424339 6.528227 -0.7852985 66.12733 -50.4331 60.25388 -180 80.47351 -180 -5.412172 3.885852 -18.80398 -1.984077 23.25606 1.881142 9.25031 15.66025 -9.108306 -12.03339 11.53922 8.667314 5.854826 -27.69588 3.374628 22.29154 -5.850608 24.91416 -56.21854 -33.05141 8.17788 0 -73.35677 0 15.92013 16.89009 43.7006 -28.66102 -27.57038 -2.803478 50.98164 -19.01916 -12.32086 0 -78.62508 0 -8.441225 0.8845641 -26.36172
-0.1589766 48.41709 0.09086597 -3.897502 -22.20359 -2.111337 -50.20884 -59.53579 -49.811 -180 86.5033 -180 5.444968 6.488323 -0.7662892 66.09675 -50.59627 60.18464 -180 80.54312 -180 -5.415055 3.840229 -18.66922 -2.163917 23.18672 2.345156 9.030394 15.76045 -8.815649 -11.64786 11.50965 8.563287 5.810247 -27.65053 3.45152 22.41685 -5.896824 24.35868 -56.38211 -32.87065 8.002166 0 -73.94514 0 15.89538 16.85869 43.66993 -28.67461 -28.17632 -1.358248 52.13059 -17.06752 -9.412399 0 -79.87249 0 -6.536934 -1.511103 -23.62108
-0.1380733 48.33359 0.1319957 -4.054235 -21.90762 -1.935875 -50.75437 -59.54152 -50.54716 -180 86.44514 -180 5.498892 6.439494 -0.7363341 66.52355 -51.10904 60.46913 -180 80.43626 -180 -5.432053 3.782814 -18.55011 -1.864482 23.07122 2.567871 8.95421 15.69822 -8.649408 -11.24368 11.5604 8.391963 5.798698 -27.46351 3.413127 22.37897 -6.022191 23.79892 -56.62964 -32.67234 7.749956 0 -74.65437 0 15.85868 16.81511 43.63096 -28.38224 -28.79321 0.02437113 53.36553 -15.19575 -6.710981 0 -80.13074 0 -4.882812 -3.405436 -20.8548
-0.1361669 48.35519 0.1860474 -4.19136 -21.61338 -1.744511 -51.05926 -59.53414 -51.02792 -180 86.40844 -180 5.579528 6.360553 -0.799094 66.9169 -51.52285 60.72878 -180 80.37763 -180 -5.400572 3.772365 -18.51173 -1.666496 22.95032 2.778149 8.998343 15.71562 -8.56238 -10.90514 11.6178 8.236126 5.78921 -27.29636 3.34207 22.3336 -6.099164 23.28357 -56.84408 -32.42602 7.519593 0 -75.43225 0 15.83248 16.74886 43.59559 -27.84474 -29.44541 1.215553 54.7432 -13.43648 -4.191806 0 -79.30102 0 -3.473282 -4.851021 -18.06103
-0.09195039 48.36307 0.2402102 -4.299789 -21.31962 -1.490313 -51.39986 -59.56101 -51.42068 -180 86.36663 -180 5.679472 6.261823 -0.9470052 67.28266 -51.91728 61.08136 -180 80.33303 -180 -5.349668 3.78791 -18.55984 -1.509349 22.8576 2.859129 9.139252 15.70582 -8.546268 -10.6276 11.64205 8.130936 5.782933 -27.18493 3.294066 22.28491 -6.159125 22.83239 -57.05317 -32.20007 7.304138 0 -76.21274 0 15.80857 16.67759 43.5561 -27.14053 -30.19445 2.170925 56.16741 -11.8197 -1.778851 0 -77.47887 0 -2.240354 -5.916878 -15.21799
-0.03668575 48.35594 0.2836556 -4.431335 -21.05133 -1.183225 -51.62603 -59.61353 -51.6569 -180 86.31926 -180 5.80094 6.145417 -1.141357 67.73101 -52.257 61.58959 -180 80.2984 -180 -5.286305 3.812234 -18.68282 -1.368693 22.8166 2.833376 9.307495 15.64223 -8.569882 -10.40576 11.64825 8.08281 5.785642 -27.12127 3.279545 22.22919 -6.213758 22.46186 -57.26203 -31.97106 7.104834 0 -76.93569 0 15.79183 16.60233 43.50884 -26.39776 -31.14544 2.865097 57.53748 -10.43094 0.5956102 0 -75.01497 0 -1.12772 -6.70191 -12.34283
0.03045185 48.36269 0.3390289 -4.637393 -20.79998 -0.8392882 -51.67386 -59.62175 -51.7168 -180 86.31421 -180 5.935531 6.022338 -1.386657 68.27966 -52.53321 62.18843 -180 80.25715 -180 -5.199098 3.845999 -18.87428 -1.140918 22.77969 2.727789 9.475547 15.53664 -8.603752 -10.23496 11.66217 8.066639 5.788288 -27.10545 3.27475 22.14773 -6.229407 22.13247 -57.47531 -31.71959 6.935897 0 -77.58042 0 15.79094 16.52463 43.46373 -25.73594 -32.3631 3.348922 58.77198 -9.301264 2.965508 0 -72.12057 0 -0.1402118 -7.254579 -9.450446
0.2349484 48.46271 0.416665 -4.904489 -20.53961 -0.4291139 -51.69885 -59.49468 -51.67245 -180 86.3356 -180 6.069351 5.930393 -1.650445 68.68716 -52.8179 62.74538 -180 80.22531 -180 -5.112201 3.885456 -19.07357 -0.7505583 22.68825 2.479126 9.649945 15.45728 -8.714623 -10.09964 11.69881 8.073734 5.798292 -27.10266 3.270737 22.07036 -6.203548 21.79941 -57.68209 -31.40577 6.772957 0 -78.13071 0 15.79166 16.4458 43.40592 -25.22818 -33.70011 3.611468 59.81174 -8.433574 5.145206 0 -68.91894 0 0.6300718 -7.60737 -6.596145
0.1609259 48.40101 0.4663142 -4.857099 -20.25546 -0.1535687 -51.8862 -59.79253 -51.6947 -180 86.21283 -180 6.2234 5.802461 -1.973099 69.31044 -52.89365 63.53593 -180 80.19052 -180 -5.02232 3.942161 -19.33137 -1.095061 22.57311 2.63318 9.872125 15.23004 -8.761868 -10.00297 11.71785 8.104337 5.802849 -27.01549 3.257172 22.01454 -6.149335 21.51594 -57.82237 -31.11011 6.653554 0 -78.64673 0 15.79333 16.35096 43.35289 -24.44477 -35.01934 3.676628 60.86184 -7.925944 7.003191 0 -65.46654 0 1.087749 -7.791487 -3.826166
0.1937381 48.3942 0.5394122 -4.894906 -19.99489 0.146586 -52.06352 -59.97213 -51.70151 -180 86.12146 -180 6.365933 5.691937 -2.268361 69.79191 -53.01861 64.2211 -180 80.15084 -180 -4.944763 3.990969 -19.53783 -1.272204 22.4096 2.685832 10.12923 15.08024 -8.856912 -9.915905 11.70471 8.164613 5.816319 -26.9609 3.278429 21.95736 -6.106204 21.27989 -57.98541 -30.80427 6.505159 0 -79.0842 0 15.79331 16.24244 43.28964 -23.75485 -36.17322 3.553988 61.77013 -7.669684 8.386184 0 -61.93056 0 1.182399 -7.903417 -1.217094
0.229616 48.39773 0.6079277 -5.000024 -19.77005 0.4277152 -52.11476 -60.07487 -51.64342 -180 86.06144 -180 6.507146 5.58887 -2.546246 70.24864 -53.18712 64.77819 -180 80.10793 -180 -4.864649 4.030939 -19.70702 -1.414006 22.24646 2.713387 10.41819 14.98851 -8.990664 -9.852662 11.64731 8.267939 5.832974 -26.94322 3.343736 21.90345 -6.071424 21.11434 -58.16238 -30.50196 6.350777 0 -79.44052 0 15.79908 16.11646 43.22844 -23.11966 -37.13895 3.204986 62.5796 -7.693827 9.280079 0 -58.42471 0 0.9553488 -8.018084 1.194669
0.2679766 48.40599 0.6530469 -5.122779 -19.55518 0.672814 -52.13902 -60.16651 -51.60946 -180 86.01719 -180 6.638901 5.494788 -2.791158 70.67814 -53.40395 65.25612 -180 80.06805 -180 -4.786702 4.066545 -19.81367 -1.563285 22.07781 2.731211 10.71124 14.92569 -9.119222 -9.827368 11.58368 8.413043 5.847265 -26.93241 3.442956 21.85717 -6.065255 21.00248 -58.34371 -30.21782 6.172542 0 -79.69718 0 15.79785 15.9823 43.16275 -22.49597 -37.96617 2.717694 63.29707 -7.985467 9.785626 0 -55.09877 0 0.5390179 -8.232688 3.391147
0.3054786 48.41946 0.6864511 -5.260413 -19.35096 0.8673323 -52.12697 -60.25053 -51.58592 -180 86.00765 -180 6.758508 5.425185 -3.015228 71.05737 -53.65858 65.62041 -180 80.03016 -180 -4.723559 4.076586 -19.8616 -1.712754 21.91919 2.732558 10.98136 14.86117 -9.242437 -9.843201 11.50039 8.592464 5.851674 -26.94703 3.570799 21.82779 -6.059148 20.93066 -58.50053 -29.96457 6.021208 0 -79.87647 0 15.79926 15.83451 43.09329 -21.9137 -38.71743 2.143038 63.93565 -8.440003 10.04658 0 -51.96409 0 0.05795481 -8.548154 5.378955
0.3467329 48.44309 0.7211166 -5.436734 -19.16115 0.9719964 -52.01737 -60.34032 -51.52635 -180 86.03188 -180 6.865265 5.364585 -3.190485 71.42537 -53.88806 65.88977 -180 79.98681 -180 -4.673894 4.05448 -19.86303 -1.829511 21.76844 2.700828 11.21277 14.80906 -9.352685 -9.899256 11.39124 8.808389 5.848206 -27.00125 3.727316 21.7991 -6.036792 20.91052 -58.61945 -29.75158 5.940238 0 -79.97904 0 15.81462 15.67778 43.0294 -21.42175 -39.36874 1.511918 64.46444 -8.988957 10.10008 0 -49.04115 0 -0.4870302 -8.957148 7.166769
0.3918317 48.46312 0.751244 -5.605396 -18.97789 1.00267 -51.92824 -60.44269 -51.50455 -180 86.0748 -180 6.944767 5.322217 -3.302104 71.73073 -54.11846 66.06935 -180 79.93819 -180 -4.64951 3.998584 -19.80435 -1.962489 21.62431 2.637366 11.39613 14.75794 -9.449542 -9.950576 11.27417 9.023026 5.85618 -27.08266 3.891381 21.79471 -6.007119 20.95265 -58.69559 -29.60866 5.910044 0 -79.98757 0 15.8303 15.52112 42.95791 -21.03831 -39.94831 0.8523231 64.89604 -9.571349 10.02337 0 -46.36327 0 -1.022369 -9.458223 8.781324
0.439186 48.48288 0.7822742 -5.790573 -18.80265 0.9648275 -51.82391 -60.53852 -51.52714 -180 86.13853 -180 7.015674 5.301849 -3.362505 72.0464 -54.32456 66.2108 -180 79.87605 -180 -4.640828 3.92198 -19.72082 -2.074206 21.50282 2.537787 11.52959 14.7057 -9.552264 -10.00195 11.14552 9.218536 5.873082 -27.20936 4.03615 21.82946 -5.969545 21.02878 -58.71614 -29.52446 5.945575 0 -79.94889 0 15.85006 15.35861 42.89385 -20.77047 -40.49591 0.2133393 65.25318 -10.12526 9.905251 0 -43.94757 0 -1.486427 -10.04111 10.25427
0.4772665 48.49694 0.8152416 -5.976957 -18.6333 0.8640812 -51.73531 -60.6417 -51.60284 -180 86.20119 -180 7.066451 5.286246 -3.386772 72.37757 -54.47743 66.33962 -180 79.80201 -180 -4.638728 3.825764 -19.63108 -2.203958 21.39223 2.42742 11.62128 14.64283 -9.645693 -10.00074 10.98573 9.391089 5.942268 -27.3798 4.175009 21.88975 -5.909334 21.10648 -58.6872 -29.48609 6.030426 0 -79.89017 0 15.87045 15.18787 42.829 -20.60435 -41.03993 -0.3822427 65.56988 -10.63204 9.807962 0 -41.80386 0 -1.812282 -10.68746 11.61777
0.504106 48.50748 0.8533951 -6.160513 -18.467 0.7371899 -51.67989 -60.73403 -51.74783 -180 86.257 -180 7.103352 5.290371 -3.359029 72.72641 -54.59786 66.48464 -180 79.71546 -180 -4.651352 3.73041 -19.51011 -2.341849 21.29448 2.302594 11.67992 14.5625 -9.719669 -9.952834 10.83302 9.511791 6.055166 -27.58581 4.270291 21.9565 -5.839304 21.18599 -58.62996 -29.47644 6.161444 0 -79.80792 0 15.88831 15.01595 42.7665 -20.48144 -41.61172 -0.9162783 65.86849 -11.12408 9.732716 0 -40.00362 0 -1.984049 -11.3918 12.83012
0.517618 48.52195 0.8838126 -6.324801 -18.29489 0.602575 -51.68416 -60.80624 -51.97799 -180 86.31878 -180 7.123122 5.29622 -3.294166 73.07033 -54.70117 66.6352 -180 79.64477 -180 -4.661076 3.640527 -19.39037 -2.487454 21.20641 2.188419 11.71697 14.47083 -9.778668 -9.874359 10.68771 9.571748 6.199773 -27.8203 4.303146 22.01637 -5.763322 21.26942 -58.56751 -29.48052 6.301787 0 -79.71888 0 15.905 14.84106 42.70865 -20.38432 -42.16363 -1.381644 66.12498 -11.60411 9.645659 0 -38.50693 0 -1.997572 -12.10639 13.91364
0.5225452 48.53931 0.9152212 -6.463165 -18.12907 0.4807612 -51.74242 -60.85277 -52.26453 -180 86.37126 -180 7.133081 5.296699 -3.200428 73.40153 -54.77951 66.79651 -180 79.5893 -180 -4.672159 3.560162 -19.29307 -2.627797 21.13231 2.096493 11.7481 14.38975 -9.839594 -9.784157 10.55304 9.585237 6.365414 -28.07989 4.280064 22.07424 -5.690341 21.33142 -58.50895 -29.48913 6.438685 0 -79.66242 0 15.91215 14.65722 42.64837 -20.3311 -42.68027 -1.797553 66.2943 -12.0461 9.5294 0 -37.21115 0 -1.844615 -12.78267 14.88959
0.5283941 48.55392 0.944595 -6.588687 -17.97314 0.3743992 -51.83954 -60.8638 -52.58824 -180 86.42254 -180 7.137861 5.298689 -3.096334 73.69653 -54.84653 66.9465 -180 79.53832 -180 -4.678942 3.491078 -19.21816 -2.723126 21.0747 2.030405 11.76372 14.31803 -9.90012 -9.696805 10.42241 9.558443 6.537059 -28.36028 4.209462 22.14242 -5.62582 21.37543 -58.47375 -29.48741 6.544869 0 -79.64923 0 15.90852 14.46274 42.59859 -20.33785 -43.15679 -2.185229 66.40248 -12.43559 9.386682 0 -36.03619 0 -1.531608 -13.39339 15.78748
